<svg width="22" height="48" viewBox="0 0 22 48" fill="none" xmlns="http://www.w3.org/2000/svg">
<g clip-path="url(#clip0_5210_101480)">
<path d="M6.01592 28.1518C7.58163 29.9636 7.58163 29.9636 7.52711 30.7952C7.41069 31.0313 7.41069 31.0313 7.16956 31.1872C6.06183 31.5246 4.98426 31.4671 3.91608 31.0037C2.37151 30.1569 1.60343 28.8403 1.10041 27.2022C0.9954 26.7981 1.04216 26.5526 1.16929 26.1516C3.02194 25.9481 4.74494 26.8402 6.01592 28.1518Z" fill="#E0E0E0"/>
<path d="M3.5224 10.6366C4.65633 10.962 5.22732 11.8716 5.7999 12.8505C5.84583 12.9287 5.89176 13.0069 5.93909 13.0875C6.73321 14.5686 6.9459 16.3702 6.66392 18.0192C6.60016 18.1968 6.60016 18.1968 6.3483 18.3431C5.19603 18.1534 4.2735 17.498 3.58169 16.5673C2.8257 15.3563 2.54479 13.8374 2.80995 12.4269C2.86899 12.1762 2.93453 11.9284 3.00352 11.6803C3.02544 11.5954 3.04736 11.5105 3.06995 11.4231C3.09186 11.3423 3.11377 11.2616 3.13634 11.1784C3.15603 11.1058 3.17572 11.0332 3.196 10.9584C3.27054 10.7829 3.27054 10.7829 3.5224 10.6366Z" fill="#E0E0E0"/>
<path d="M10.3904 35.9425C10.5091 36.138 10.5091 36.138 10.5298 36.4576C10.1089 37.106 9.33114 37.3358 8.61475 37.5239C7.15097 37.8044 5.91165 37.3381 4.70251 36.5145C4.23692 36.1341 3.87925 35.6732 3.52673 35.1892C3.48181 35.1295 3.43688 35.0697 3.39059 35.0082C3.15239 34.664 3.08737 34.4876 3.10461 34.0629C3.12816 33.9581 3.15171 33.8534 3.17597 33.7454C5.76379 32.8811 8.65988 33.8262 10.3904 35.9425Z" fill="#E0E0E0"/>
<path d="M1.84369 18.3855C3.40281 18.823 4.50254 20.0304 5.32033 21.3819C5.78481 22.2893 6.37745 23.4998 6.21409 24.5284C6.17832 24.6179 6.14255 24.7074 6.10569 24.7997C5.32809 25.0649 4.49348 24.7484 3.74389 24.4876C2.46691 23.8102 1.70303 22.7015 1.26363 21.3439C0.99137 20.3537 0.872547 19.3436 1.23821 18.3636C1.44536 18.2433 1.61693 18.3314 1.84369 18.3855Z" fill="#E0E0E0"/>
<path d="M7.57977 3.81244C8.16863 4.00159 8.40237 4.32927 8.68228 4.85624C9.48348 6.57672 9.65592 8.49812 9.23068 10.3488C9.20541 10.4669 9.20541 10.4669 9.17963 10.5874C9.04977 11.1354 8.82997 11.6034 8.55117 12.0912C7.81347 11.9958 7.4005 11.5652 6.92593 11.0142C6.16825 10.0098 5.84129 8.70046 5.96889 7.44348C6.03615 7.07786 6.12697 6.72129 6.22522 6.36286C6.25147 6.26627 6.27772 6.16968 6.30476 6.07017C6.55139 5.20229 6.82062 4.35825 7.57977 3.81244Z" fill="#E0E0E0"/>
<path d="M20.0483 43.3964C20.1933 43.649 20.1933 43.649 20.1506 43.8547C19.6532 45.1801 18.7947 45.9853 17.5365 46.5909C16.3853 47.0583 15.3385 46.9831 14.1686 46.6654C14.0259 46.6297 14.0259 46.6297 13.8803 46.5933C13.3044 46.4394 12.9164 46.2652 12.4777 45.8581C12.7983 44.8399 13.6577 44.2703 14.556 43.7764C16.218 42.9716 18.3073 42.7073 20.0483 43.3964Z" fill="#E0E0E0"/>
<path d="M12.5454 39.5231C12.6493 39.5498 12.7533 39.5766 12.8604 39.6041C14.5286 40.0716 14.5286 40.0716 14.8386 40.612C14.7899 41.1819 14.4746 41.4734 14.073 41.8401C13.0544 42.6651 12.0159 43.0205 10.7097 42.9268C9.33839 42.694 8.26248 42.17 7.24424 41.2031C7.00893 40.8661 7.00893 40.8661 6.9849 40.5589C7.44996 39.8241 8.35356 39.582 9.15724 39.3822C10.3685 39.1109 11.356 39.2149 12.5454 39.5231Z" fill="#E0E0E0"/>
<path d="M17.1662 2.96033C17.2896 3.17542 17.1892 3.37181 17.1327 3.60619C16.658 5.30536 15.5533 6.61097 14.0442 7.46941C12.5652 8.2971 12.5652 8.2971 11.796 8.19672C11.7118 8.15875 11.6277 8.12077 11.5411 8.08165C11.2812 7.30702 11.5986 6.42713 11.9097 5.69846C12.4802 4.54748 13.3155 3.66363 14.4724 3.09382C15.4564 2.77523 16.1873 2.66313 17.1662 2.96033Z" fill="#E0E0E0"/>
<path d="M19.2523 35.4786C20.275 36.1243 20.6115 37.3463 20.8955 38.4618C21.1465 39.7381 21.0876 41.047 20.6664 42.2789C20.3219 42.3579 20.1583 42.3658 19.8368 42.2082C18.7859 41.442 18.1933 40.6283 17.9612 39.3336C17.7627 38.0219 18.0631 36.7034 18.7446 35.563C18.9964 35.4167 18.9964 35.4167 19.2523 35.4786Z" fill="#E0E0E0"/>
<path d="M12.4867 24.3911C12.545 24.4354 12.6033 24.4797 12.6634 24.5253C12.8221 26.0635 12.0023 27.4446 11.0788 28.604C10.4941 29.2908 9.80477 30.0102 8.96878 30.3777C8.68989 30.3289 8.68989 30.3289 8.47277 30.2448C8.26145 29.4738 8.16391 28.8629 8.31293 28.0637C8.32457 27.9942 8.3362 27.9247 8.34819 27.8531C8.59227 26.7019 9.365 25.7574 10.2862 25.0644C10.6028 24.8682 10.921 24.7152 11.2669 24.5787C11.3498 24.5456 11.4327 24.5124 11.5181 24.4782C12.1132 24.2654 12.1132 24.2654 12.4867 24.3911Z" fill="#E0E0E0"/>
<path d="M13.6468 28.7512C14.0059 29.0412 14.05 29.4288 14.0969 29.8662C14.156 31.8849 13.263 33.838 11.9656 35.337C11.7441 35.5048 11.7441 35.5048 11.4675 35.5297C11.2214 35.4716 11.2214 35.4716 11.0281 35.2261C10.4729 34.1017 10.4063 33.0107 10.7146 31.8077C11.1867 30.4726 12.0755 29.5245 13.2373 28.7418C13.4625 28.6952 13.4625 28.6952 13.6468 28.7512Z" fill="#E0E0E0"/>
<path d="M16.0178 32.6115C16.5353 32.9794 16.707 33.7291 16.8175 34.325C17.0426 36.0418 16.7471 37.8712 15.9094 39.4006C15.8175 39.4818 15.7256 39.563 15.6308 39.6467C14.9436 39.4467 14.6103 39.0372 14.2575 38.4234C13.6854 37.1364 13.7502 35.8772 14.2277 34.5666C14.5624 33.8175 15.0045 33.1431 15.6093 32.5847C15.8344 32.5381 15.8344 32.5381 16.0178 32.6115Z" fill="#E0E0E0"/>
<path d="M12.9663 15.0588C13.0413 15.0783 13.1164 15.0978 13.1937 15.1179C13.733 15.2702 13.733 15.2702 13.8965 15.5553C13.6283 16.5564 12.8836 17.1775 12.026 17.7002C11.3819 18.0537 10.7407 18.2949 10.0307 18.4752C9.94703 18.4966 9.86331 18.518 9.77706 18.5401C9.0439 18.7088 8.41288 18.7155 7.68796 18.489C7.55529 17.7965 7.83157 17.2897 8.16907 16.6935C8.99582 15.6139 9.91941 15.0681 11.2459 14.8409C11.8473 14.7869 12.3883 14.9085 12.9663 15.0588Z" fill="#E0E0E0"/>
<path d="M12.6933 20.0446C12.3906 21.6974 11.2736 22.7798 9.97091 23.732C9.35196 24.128 8.56998 24.4783 7.85046 24.6272C7.65103 24.578 7.45244 24.5252 7.25525 24.4677C7.04183 23.626 7.45614 22.5557 7.83105 21.798C8.49173 20.8028 9.57001 20.0763 10.7305 19.806C12.2501 19.5611 12.2501 19.5611 12.6933 20.0446Z" fill="#E0E0E0"/>
<path d="M15.9201 11.1791C16.0291 11.3116 16.1355 11.4462 16.2367 11.5847C16.0849 12.1515 15.7325 12.3867 15.2573 12.6796C13.354 13.6619 11.5892 13.4341 9.63552 12.8095C9.5625 12.4747 9.54518 12.3081 9.70231 11.9975C10.5282 10.9289 11.4568 10.3231 12.7992 10.1291C13.8118 10.1065 15.1517 10.508 15.9201 11.1791Z" fill="#E0E0E0"/>
</g>
<defs>
<clipPath id="clip0_5210_101480">
<rect width="22" height="48" fill="white"/>
</clipPath>
</defs>
</svg>
