<svg xmlns="http://www.w3.org/2000/svg" width="22" height="48" fill="none" viewBox="0 0 22 48"><g clip-path="url(#clip0_5210_101498)"><path fill="#E0E0E0" d="M15.9841 28.1518C14.4184 29.9636 14.4184 29.9636 14.4729 30.7952C14.5893 31.0313 14.5893 31.0313 14.8304 31.1872C15.9382 31.5246 17.0157 31.4671 18.0839 31.0037C19.6285 30.1569 20.3966 28.8403 20.8996 27.2022C21.0046 26.7981 20.9578 26.5526 20.8307 26.1516C18.9781 25.9481 17.2551 26.8402 15.9841 28.1518Z"/><path fill="#E0E0E0" d="M18.4776 10.6366C17.3437 10.962 16.7727 11.8716 16.2001 12.8505C16.1542 12.9287 16.1082 13.0069 16.0609 13.0875C15.2668 14.5686 15.0541 16.3702 15.3361 18.0192C15.3998 18.1968 15.3998 18.1968 15.6517 18.3431C16.804 18.1534 17.7265 17.498 18.4183 16.5673C19.1743 15.3563 19.4552 13.8374 19.1901 12.4269C19.131 12.1762 19.0655 11.9284 18.9965 11.6803C18.9746 11.5954 18.9526 11.5105 18.9301 11.4231C18.9081 11.3423 18.8862 11.2616 18.8637 11.1784C18.844 11.1058 18.8243 11.0332 18.804 10.9584C18.7295 10.7829 18.7295 10.7829 18.4776 10.6366Z"/><path fill="#E0E0E0" d="M11.6096 35.9425C11.4909 36.138 11.4909 36.138 11.4702 36.4576C11.8911 37.106 12.6689 37.3358 13.3852 37.5239C14.849 37.8044 16.0884 37.3381 17.2975 36.5145C17.7631 36.1341 18.1207 35.6732 18.4733 35.1892C18.5182 35.1295 18.5631 35.0697 18.6094 35.0082C18.8476 34.664 18.9126 34.4876 18.8954 34.0629C18.8718 33.9581 18.8483 33.8534 18.824 33.7454C16.2362 32.8811 13.3401 33.8262 11.6096 35.9425Z"/><path fill="#E0E0E0" d="M20.1563 18.3855C18.5972 18.823 17.4975 20.0304 16.6797 21.3819C16.2152 22.2893 15.6225 23.4998 15.7859 24.5284C15.8217 24.6179 15.8575 24.7074 15.8943 24.7997C16.6719 25.0649 17.5065 24.7484 18.2561 24.4876C19.5331 23.8102 20.297 22.7015 20.7364 21.3439C21.0086 20.3537 21.1275 19.3436 20.7618 18.3636C20.5546 18.2433 20.3831 18.3314 20.1563 18.3855Z"/><path fill="#E0E0E0" d="M14.4202 3.81244C13.8314 4.00159 13.5976 4.32927 13.3177 4.85624C12.5165 6.57672 12.3441 8.49812 12.7693 10.3488C12.7946 10.4669 12.7946 10.4669 12.8204 10.5874C12.9502 11.1354 13.17 11.6034 13.4488 12.0912C14.1865 11.9958 14.5995 11.5652 15.0741 11.0142C15.8318 10.0098 16.1587 8.70046 16.0311 7.44348C15.9638 7.07786 15.873 6.72129 15.7748 6.36286C15.7485 6.26627 15.7223 6.16968 15.6952 6.07017C15.4486 5.20229 15.1794 4.35825 14.4202 3.81244Z"/><path fill="#E0E0E0" d="M1.95165 43.3964C1.80671 43.649 1.80671 43.649 1.84938 43.8547C2.34681 45.1801 3.20528 45.9853 4.46354 46.5909C5.61475 47.0583 6.66154 46.9831 7.8314 46.6654C7.97408 46.6297 7.97408 46.6297 8.11965 46.5933C8.69557 46.4394 9.08358 46.2652 9.52227 45.8581C9.20169 44.8399 8.3423 44.2703 7.44399 43.7764C5.78204 42.9716 3.69274 42.7073 1.95165 43.3964Z"/><path fill="#E0E0E0" d="M9.45462 39.5231C9.35066 39.5498 9.2467 39.5766 9.13959 39.6041C7.47138 40.0716 7.47138 40.0716 7.16141 40.612C7.21007 41.1819 7.52537 41.4734 7.927 41.8401C8.94559 42.6651 9.98414 43.0205 11.2903 42.9268C12.6616 42.694 13.7375 42.17 14.7558 41.2031C14.9911 40.8661 14.9911 40.8661 15.0151 40.5589C14.55 39.8241 13.6464 39.582 12.8428 39.3822C11.6315 39.1109 10.644 39.2149 9.45462 39.5231Z"/><path fill="#E0E0E0" d="M4.83378 2.96033C4.71039 3.17542 4.81077 3.37181 4.86729 3.60619C5.34199 5.30536 6.44668 6.61097 7.95579 7.46941C9.43483 8.2971 9.43483 8.2971 10.204 8.19672C10.2882 8.15875 10.3723 8.12077 10.4589 8.08165C10.7188 7.30702 10.4014 6.42713 10.0903 5.69846C9.51982 4.54748 8.68446 3.66363 7.52762 3.09382C6.54365 2.77523 5.81271 2.66313 4.83378 2.96033Z"/><path fill="#E0E0E0" d="M2.74769 35.4786C1.72496 36.1243 1.38846 37.3463 1.10453 38.4618C0.853485 39.7381 0.912363 41.047 1.33363 42.2789C1.67806 42.3579 1.84171 42.3658 2.1632 42.2082C3.2141 41.442 3.80665 40.6283 4.03876 39.3336C4.23726 38.0219 3.93691 36.7034 3.25542 35.563C3.00357 35.4167 3.00357 35.4167 2.74769 35.4786Z"/><path fill="#E0E0E0" d="M9.5133 24.3911C9.45499 24.4354 9.39668 24.4797 9.33661 24.5253C9.17791 26.0635 9.99771 27.4446 10.9212 28.604C11.5059 29.2908 12.1952 30.0102 13.0312 30.3777C13.3101 30.3289 13.3101 30.3289 13.5272 30.2448C13.7386 29.4738 13.8361 28.8629 13.6871 28.0637C13.6754 27.9942 13.6638 27.9247 13.6518 27.8531C13.4077 26.7019 12.635 25.7574 11.7138 25.0644C11.3972 24.8682 11.079 24.7152 10.7331 24.5787C10.6502 24.5456 10.5673 24.5124 10.4819 24.4782C9.88684 24.2654 9.88684 24.2654 9.5133 24.3911Z"/><path fill="#E0E0E0" d="M8.35321 28.7512C7.99411 29.0412 7.95004 29.4288 7.90313 29.8662C7.84397 31.8849 8.73698 33.838 10.0344 35.337C10.2559 35.5048 10.2559 35.5048 10.5325 35.5297C10.7786 35.4716 10.7786 35.4716 10.9719 35.2261C11.5271 34.1017 11.5937 33.0107 11.2854 31.8077C10.8133 30.4726 9.92447 29.5245 8.76267 28.7418C8.53754 28.6952 8.53754 28.6952 8.35321 28.7512Z"/><path fill="#E0E0E0" d="M5.98216 32.6115C5.46471 32.9794 5.29295 33.7291 5.18246 34.325C4.95739 36.0418 5.25289 37.8712 6.09058 39.4006C6.18251 39.4818 6.27444 39.563 6.36916 39.6467C7.0564 39.4467 7.38968 39.0372 7.74255 38.4234C8.31455 37.1364 8.24981 35.8772 7.77234 34.5666C7.43762 33.8175 6.99551 33.1431 6.39072 32.5847C6.16559 32.5381 6.16559 32.5381 5.98216 32.6115Z"/><path fill="#E0E0E0" d="M9.03369 15.0588C8.95866 15.0783 8.88363 15.0978 8.80633 15.1179C8.26703 15.2702 8.26703 15.2702 8.1035 15.5553C8.37175 16.5564 9.11644 17.1775 9.97403 17.7002C10.6181 18.0537 11.2593 18.2949 11.9693 18.4752C12.053 18.4966 12.1367 18.518 12.2229 18.5401C12.9561 18.7088 13.5871 18.7155 14.312 18.489C14.4447 17.7965 14.1684 17.2897 13.8309 16.6935C13.0042 15.6139 12.0806 15.0681 10.7541 14.8409C10.1527 14.7869 9.61167 14.9085 9.03369 15.0588Z"/><path fill="#E0E0E0" d="M9.30668 20.0446C9.60941 21.6974 10.7264 22.7798 12.0291 23.732C12.648 24.128 13.43 24.4783 14.1495 24.6272C14.349 24.578 14.5476 24.5252 14.7447 24.4677C14.9582 23.626 14.5439 22.5557 14.169 21.798C13.5083 20.8028 12.43 20.0763 11.2695 19.806C9.74988 19.5611 9.74988 19.5611 9.30668 20.0446Z"/><path fill="#E0E0E0" d="M6.07987 11.1791C5.97095 11.3116 5.8645 11.4462 5.76326 11.5847C5.91514 12.1515 6.26755 12.3867 6.74273 12.6796C8.64596 13.6619 10.4108 13.4341 12.3645 12.8095C12.4375 12.4747 12.4548 12.3081 12.2977 11.9975C11.4718 10.9289 10.5432 10.3231 9.20084 10.1291C8.18823 10.1065 6.84827 10.508 6.07987 11.1791Z"/></g><defs><clipPath id="clip0_5210_101498"><rect width="22" height="48" fill="#fff" transform="matrix(-1 0 0 1 22 0)"/></clipPath></defs></svg>