<svg width="51" height="10" viewBox="0 0 51 10" fill="none" xmlns="http://www.w3.org/2000/svg">
<path d="M5 0.5L6.22201 3.31805L9.27975 3.60942L6.97725 5.64245L7.64503 8.64058L5 7.079L2.35497 8.64058L3.02275 5.64245L0.720246 3.60942L3.77799 3.31805L5 0.5Z" fill="#1B263F"/>
<path d="M15 0.5L16.222 3.31805L19.2798 3.60942L16.9772 5.64245L17.645 8.64058L15 7.079L12.355 8.64058L13.0228 5.64245L10.7202 3.60942L13.778 3.31805L15 0.5Z" fill="#1B263F"/>
<path d="M25.5 0.5L26.8578 3.31805L30.2553 3.60942L27.6969 5.64245L28.4389 8.64058L25.5 7.079L22.5611 8.64058L23.3031 5.64245L20.7447 3.60942L24.1422 3.31805L25.5 0.5Z" fill="#1B263F"/>
<path d="M36 0.5L37.222 3.31805L40.2798 3.60942L37.9772 5.64245L38.645 8.64058L36 7.079L33.355 8.64058L34.0228 5.64245L31.7202 3.60942L34.778 3.31805L36 0.5Z" fill="#1B263F"/>
<path d="M46 0.5L47.222 3.31805L50.2798 3.60942L47.9772 5.64245L48.645 8.64058L46 7.079L43.355 8.64058L44.0228 5.64245L41.7202 3.60942L44.778 3.31805L46 0.5Z" fill="#1B263F"/>
</svg>
