<svg xmlns="http://www.w3.org/2000/svg" role="img" viewBox="506.2 531.2 67.47 17.47"><rect width="100%" height="100%" fill="transparent"/><g><g><g><path fill="#fff" d="M 31.6936 3.8938 C 30.3722 3.8938 29.0724 4.46903 28.0759 5.60841 L 28.0759 0 L 26.1154 0 L 26.1154 9.4469 C 26.1154 12.5111 28.5525 15 31.5528 15 C 34.5532 15 36.9903 12.5111 36.9903 9.4469 C 36.9903 6.38274 34.694 3.8938 31.6936 3.8938 Z M 31.5528 12.865 C 29.7006 12.865 28.2059 11.3385 28.2059 9.4469 C 28.2059 7.56637 29.7006 6.02876 31.5528 6.02876 C 33.405 6.02876 34.8998 7.55531 34.8998 9.4469 C 34.8889 11.3274 33.3942 12.865 31.5528 12.865 Z M 43.8683 3.8938 C 42.5468 3.8938 41.2471 4.46903 40.2506 5.60841 L 40.2506 0 L 38.29 0 L 38.29 9.4469 C 38.29 12.5111 40.7271 15 43.7275 15 C 46.7278 15 49.1649 12.5111 49.1649 9.4469 C 49.1649 6.38274 46.8686 3.8938 43.8683 3.8938 Z M 43.7275 12.865 C 41.8753 12.865 40.3805 11.3385 40.3805 9.4469 C 40.3805 7.56637 41.8753 6.02876 43.7275 6.02876 C 45.5797 6.02876 47.0744 7.55531 47.0744 9.4469 C 47.0744 11.3274 45.5797 12.865 43.7275 12.865 Z M 15.0456 10.4204 L 15.0456 4.19248 L 17.1577 4.19248 L 17.1577 10.3982 C 17.1577 11.9801 18.0567 12.9978 19.5731 12.9978 C 21.1112 12.9978 21.9886 12.0243 21.9886 10.3982 L 21.9886 4.19248 L 24.1116 4.19248 L 24.1116 10.4204 C 24.1116 13.2965 22.4002 15 19.5731 15 C 16.8111 15 15.0456 13.2411 15.0456 10.4204 Z M 52.9776 14.7456 L 50.8655 14.7456 L 50.8655 0 L 52.9776 0 L 52.9776 14.7456 Z M 64.914 10.2987 L 56.8445 10.2987 C 57.1477 11.9469 58.2851 13.0642 60.2781 13.0642 C 61.4479 13.0642 62.8668 12.6106 63.7875 11.9248 L 64.6648 13.5066 C 63.6142 14.3142 61.9461 14.9779 60.2022 14.9779 C 56.3354 14.9779 54.6673 12.2124 54.6673 9.43584 C 54.6673 7.85398 55.1439 6.53761 56.1296 5.49779 C 57.1044 4.45796 58.3934 3.92699 59.9423 3.92699 C 61.4154 3.92699 62.6502 4.39159 63.5817 5.35398 C 64.524 6.31637 65.0006 7.59955 65.0006 9.24778 C 64.9789 9.55752 64.9681 9.9115 64.914 10.2987 Z M 56.8336 8.53982 L 62.856 8.53982 C 62.6827 6.86947 61.4804 5.79646 59.9206 5.79646 C 58.3284 5.79646 57.1477 6.89159 56.8336 8.53982 Z M 8.35168 3.8938 C 7.03023 3.8938 5.73045 4.46903 4.73395 5.60841 L 4.73395 0 L 2.77344 0 L 2.77344 9.4469 C 2.77344 12.5111 5.21053 15 8.21087 15 C 11.2112 15 13.6483 12.5111 13.6483 9.4469 C 13.6483 6.38274 11.352 3.8938 8.35168 3.8938 Z M 8.21087 12.865 C 6.35868 12.865 4.86392 11.3385 4.86392 9.4469 C 4.86392 7.56637 6.35868 6.02876 8.21087 6.02876 C 10.0631 6.02876 11.5578 7.55531 11.5578 9.4469 C 11.5578 11.3274 10.0631 12.865 8.21087 12.865 Z" transform="translate(507.5 532.5)" vector-effect="non-scaling-stroke"/></g><g><path fill="#0000EA" d="M 1.34311 14.9992 C 2.08489 14.9992 2.68622 14.3851 2.68622 13.6275 C 2.68622 12.87 2.08489 12.2559 1.34311 12.2559 C 0.601331 12.2559 0 12.87 0 13.6275 C 0 14.3851 0.601331 14.9992 1.34311 14.9992 Z" transform="translate(507.5 532.5)" vector-effect="non-scaling-stroke"/></g></g></g></svg>